<svg xmlns="http://www.w3.org/2000/svg" width="49.727" height="49.727"><path d="M43.75 17.02c-.242 0-.48.013-.71.035v-2.583s-7.68.24-7.755-3.917c-.207-2.97-4.8-1.913-4.98-2.068-.176-.15-.073-1.396-5.237-1.46V7.02h-.207l-.204-.002v.006c-5.163.065-5.062 1.31-5.236 1.46-.18.156-4.773-.9-4.98 2.07-.077 4.158-7.754 3.916-7.754 3.916v2.37c-.234-.023-.47-.038-.71-.038-4.23 0-5.975 3.562-5.975 7.95 0 4.395 1.747 7.956 5.978 7.956.24 0 .477-.017.71-.04v2.587s7.677-.242 7.754 3.917c.208 2.97 4.8 1.91 4.98 2.067.175.15.073 1.395 5.236 1.46v.006c.074 0 .136-.004.207-.004.07 0 .134.004.207.004V42.7c5.163-.063 5.06-1.31 5.237-1.46.18-.156 4.77.9 4.98-2.067.074-4.16 7.753-3.917 7.753-3.917v-2.37c.233.02.47.037.71.037 4.23 0 5.98-3.562 5.98-7.953 0-4.39-1.75-7.95-5.98-7.95zM21.38 32.17l2.075-7.502c-1.283-.52-2.188-1.775-2.188-3.245 0-1.93 1.565-3.497 3.497-3.497 1.93 0 3.496 1.567 3.496 3.497 0 1.315-.725 2.46-1.798 3.06l1.997 7.687h-7.08z"/></svg>